<?xml version="1.0" encoding="UTF-8"?>
<svg width="112px" height="16px" viewBox="0 0 112 16" version="1.1" xmlns="http://www.w3.org/2000/svg" xmlns:xlink="http://www.w3.org/1999/xlink">
    <!-- Generator: Sketch 60 (88103) - https://sketch.com -->
    <title>uth_logo</title>
    <desc>Created with Sketch.</desc>
    <defs>
        <path d="M6.41721854,16 L6.41721854,0 L4.15231788,0 L4.15231788,13.655527 L2.26490066,13.655527 L2.26490066,0 L0,0 L0,16 L6.41721854,16 Z M11.115894,16 L11.115894,3.90745501 L13.6986755,5.44987147 L13.0033113,5.44987147 L13.0033113,16 L15.2682119,16 L15.2682119,0 L13.0033113,0 L13.0033113,2.48843188 L8.85099338,0 L8.85099338,16 L11.115894,16 Z M22.0529801,16 L24.1192053,14.7660668 L24.1192053,1.23393316 L22.0529801,0 L17.7019868,0 L17.7019868,16 L22.0529801,16 Z M21.1589404,13.655527 L19.9668874,13.655527 L19.9668874,2.34447301 L21.1589404,2.34447301 L21.8543046,2.75578406 L21.8543046,13.2442159 L21.1589404,13.655527 Z M33.1490066,16 L33.1490066,11.8251928 L30.884106,10.4884319 L30.884106,13.655527 L28.9966887,13.655527 L28.9966887,8.14395887 L31.3013245,9.5218509 L31.3013245,6.97172237 L28.9966887,5.59383033 L28.9966887,2.34447301 L30.884106,2.34447301 L30.884106,4.9562982 L33.1490066,4.9562982 L33.1490066,0 L26.7317881,0 L26.7317881,4.23650386 L26.1556291,3.90745501 L26.1556291,6.45758355 L26.7317881,6.80719794 L27.3278146,7.15681234 L26.7317881,7.15681234 L26.7317881,16 L33.1490066,16 Z M37.8476821,16 L37.8476821,8.14395887 L39.7350993,9.27506427 L40.3907285,9.66580977 L40.4304636,9.68637532 L39.7350993,9.68637532 L39.7350993,16 L42,16 L42,7.95886889 L40.9072848,7.30077121 L42,6.66323907 L42,0 L35.5827815,0 L35.5827815,16 L37.8476821,16 Z M39.7350993,6.70437018 L37.8476821,5.57326478 L37.8476821,2.34447301 L39.7350993,2.34447301 L39.7350993,6.70437018 Z" id="path-1"></path>
        <path d="M52.2780049,16 L52.2780049,2.34447301 L54.3385119,2.34447301 L54.3385119,0 L48,0 L48,2.34447301 L50.0408831,2.34447301 L50.0408831,16 L52.2780049,16 Z M58.9795585,16 L58.9795585,8.14395887 L60.8438267,9.27506427 L61.4914146,9.66580977 L61.5306623,9.68637532 L60.8438267,9.68637532 L60.8438267,16 L63.0809485,16 L63.0809485,0 L60.8438267,0 L60.8438267,6.70437018 L58.9795585,5.57326478 L58.9795585,0 L56.7424366,0 L56.7424366,16 L58.9795585,16 Z M72,16 L72,11.8251928 L69.7628782,10.4884319 L69.7628782,13.655527 L67.89861,13.655527 L67.89861,8.14395887 L70.1749796,9.5218509 L70.1749796,6.97172237 L67.89861,5.59383033 L67.89861,2.34447301 L69.7628782,2.34447301 L69.7628782,4.9562982 L72,4.9562982 L72,0 L65.6614881,0 L65.6614881,4.23650386 L65.0923957,3.90745501 L65.0923957,6.45758355 L65.6614881,6.80719794 L66.2502044,7.15681234 L65.6614881,7.15681234 L65.6614881,16 L72,16 Z" id="path-2"></path>
        <path d="M81.2547198,16 L81.2547198,8.14395887 L83.133653,9.27506427 L83.786335,9.66580977 L83.8258915,9.68637532 L83.133653,9.68637532 L83.133653,16 L85.3883728,16 L85.3883728,0 L83.133653,0 L83.133653,6.70437018 L81.2547198,5.57326478 L81.2547198,0 L79,0 L79,16 L81.2547198,16 Z M90.0659275,16 L90.0659275,8.14395887 L91.9448607,9.27506427 L92.5975427,9.66580977 L92.6370992,9.68637532 L91.9448607,9.68637532 L91.9448607,16 L94.1995805,16 L94.1995805,0 L87.8112077,0 L87.8112077,16 L90.0659275,16 Z M91.9448607,6.70437018 L90.0659275,5.57326478 L90.0659275,2.34447301 L91.9448607,2.34447301 L91.9448607,6.70437018 Z M103.010788,16 L103.010788,11.8251928 L100.756068,10.4884319 L100.756068,13.655527 L98.8771352,13.655527 L98.8771352,6.06683805 L103.010788,3.59897172 L103.010788,0 L96.6224153,0 L96.6224153,2.34447301 L100.756068,2.34447301 L96.6224153,4.83290488 L96.6224153,16 L103.010788,16 Z M112,16 L112,11.8251928 L109.74528,10.4884319 L109.74528,13.655527 L107.866347,13.655527 L107.866347,8.14395887 L110.160623,9.5218509 L110.160623,6.97172237 L107.866347,5.59383033 L107.866347,2.34447301 L109.74528,2.34447301 L109.74528,4.9562982 L112,4.9562982 L112,0 L105.611627,0 L105.611627,4.23650386 L105.038058,3.90745501 L105.038058,6.45758355 L105.611627,6.80719794 L106.204975,7.15681234 L105.611627,7.15681234 L105.611627,16 L112,16 Z" id="path-3"></path>
    </defs>
    <g id="uth_logo" stroke="none" stroke-width="1" fill="none" fill-rule="evenodd">
        <g id="UNDER" fill-rule="nonzero">
            <use fill="#A59549" xlink:href="#path-1"></use>
            <use fill="#917B15" xlink:href="#path-1"></use>
        </g>
        <g id="THE" fill-rule="nonzero">
            <use fill="#A59549" xlink:href="#path-2"></use>
            <use fill="#4F4F4F" xlink:href="#path-2"></use>
        </g>
        <g id="HAZE" fill-rule="nonzero">
            <use fill="#A59549" xlink:href="#path-3"></use>
            <use fill="#8D8C8B" xlink:href="#path-3"></use>
        </g>
    </g>
</svg>